<svg width="800" height="600" xmlns="http://www.w3.org/2000/svg">
 <g>
  <title>Layer 1</title>
  <ellipse ry="176.5" rx="143" id="svg_1" cy="301.5" cx="371.5" stroke="#000" fill="#fff"/>
  <path id="svg_2" d="m290.0475,276.50499l0,0c0,-42.80206 41.86138,-77.5 93.49999,-77.5l0,0c24.79773,0 48.57983,8.16515 66.11447,22.69922c17.53466,14.53407 27.38553,34.24649 27.38553,54.80078l0,0c0,42.80206 -41.86138,77.5 -93.49999,77.5l0,0c-51.63861,0 -93.49999,-34.69794 -93.49999,-77.5l-0.00001,0zm46.75,0l0,0c0,21.40103 20.9307,38.75 46.75,38.75c25.81931,0 46.75,-17.34897 46.75,-38.75c0,-21.40103 -20.93069,-38.75 -46.75,-38.75l0,0c-25.81929,0 -46.75,17.34898 -46.75,38.75z" stroke="#000" fill="#fff"/>
  <rect fill="#fff" stroke="#000" x="240.5" y="102" width="410" height="174" id="svg_3"/>
  <rect fill="#fff" stroke="#000" x="228.5" y="39" width="1" height="0" id="svg_4"/>
  <path id="svg_5" d="m348.24752,262.19418l77.53966,0l23.96035,-116.88191l23.96036,116.88191l77.53964,0l-62.73079,72.23617l23.96159,116.88191l-62.73081,-72.23814l-62.7308,72.23814l23.9616,-116.88191l-62.73081,-72.23617z" stroke="#000" fill="#fff"/>
 </g>

</svg>